# xmcd
#
# Track frame offsets:
# 150
# 13281
# 27311
# 36992
# 43822
# 60252
# 77658
# 91012
# 100767
# 114423
# 134153
# 154333
# 164988
# 172269
# 188925
# 192605
#
# Disc length: 2910 seconds
#
# Revision: 0
# Processed by: cddbd v1.5.2PL0 Copyright (c) Steve Scherf et al.
# Submitted via: Audion 3.0.2 (http://www.panic.com/audion/)
#
DISCID=e60b5c10
DTITLE=Juliana Hatfield Unplugged 11.12.04 - Juliana Hatfield Unplugged 11.12.04
DYEAR=1900
DGENRE=
TTITLE0=14
TTITLE1=15
TTITLE2=16
TTITLE3=17
TTITLE4=18
TTITLE5=19
TTITLE6=20
TTITLE7=21
TTITLE8=22
TTITLE9=23
TTITLE10=24
TTITLE11=25
TTITLE12=26
TTITLE13=27
TTITLE14=28
TTITLE15=29
EXTD=
EXTT0=
EXTT1=
EXTT2=
EXTT3=
EXTT4=
EXTT5=
EXTT6=
EXTT7=
EXTT8=
EXTT9=
EXTT10=
EXTT11=
EXTT12=
EXTT13=
EXTT14=
EXTT15=
PLAYORDER=
